<svg xmlns="http://www.w3.org/2000/svg" viewBox="0 0 116.25 109.45"><defs><style>.cls-1{fill:#5e541b;}.cls-2{fill:#0e3b43;}.cls-3{fill:#a4c2a5;}.cls-4{fill:#fff;}</style></defs><g id="レイヤー_2" data-name="レイヤー 2"><g id="レイヤー_1-2" data-name="レイヤー 1"><rect class="cls-1" x="105.82" y="3.39" height="12.01"/><path class="cls-1" d="M42.23,0H13.82a3.4,3.4,0,0,0-3.39,3.4v12h31.8Z"/><rect class="cls-2" x="42.23" width="31.8" height="15.4"/><path class="cls-3" d="M102.42,0H74V15.4h31.8v-12A3.4,3.4,0,0,0,102.42,0Z"/><path d="M74,15.4H10.43V68.8a3.4,3.4,0,0,0,3.39,3.4h88.6a3.4,3.4,0,0,0,3.4-3.4h0V15.4Z"/><path class="cls-4" d="M50.46,39.13l-8-8a1.17,1.17,0,0,0-1.67,0L39,33a1.18,1.18,0,0,0,0,1.67l7.95,8L39,50.6a1.18,1.18,0,0,0,0,1.67l1.85,1.85a1.18,1.18,0,0,0,1.67,0L53.14,43.48a1.17,1.17,0,0,0,0-1.67l-2.68-2.68Z"/><rect class="cls-4" x="55.11" y="49.98" width="17.41" height="4.98" rx="1.18"/><path class="cls-4" d="M0,91.93H3l4.36,9.82V91.93h2.4v.25a.83.83,0,0,0-.16.28,2.29,2.29,0,0,0,0,.53v12.65H6.86L2.22,95.28v10.36H0Z"/><path class="cls-4" d="M15.82,106a4.64,4.64,0,0,1-2.49-.7,4.72,4.72,0,0,1-1.76-1.94,6.31,6.31,0,0,1-.64-2.84,5.72,5.72,0,0,1,.64-2.72,5.08,5.08,0,0,1,1.78-1.94,4.65,4.65,0,0,1,2.47-.7,4.59,4.59,0,0,1,2.46.7,5,5,0,0,1,1.78,1.94,5.61,5.61,0,0,1,.64,2.72,6.18,6.18,0,0,1-.64,2.84A4.71,4.71,0,0,1,15.82,106Zm1.25-2.42a3,3,0,0,0,.84-1.23,5.24,5.24,0,0,0,.31-1.83,5.1,5.1,0,0,0-.31-1.82,2.56,2.56,0,0,0-.84-1.15,2,2,0,0,0-1.25-.41,2,2,0,0,0-1.23.41,2.58,2.58,0,0,0-.82,1.17,5.07,5.07,0,0,0-.31,1.8,5.32,5.32,0,0,0,.29,1.85,2.64,2.64,0,0,0,.81,1.21,2,2,0,0,0,1.26.44A2,2,0,0,0,17.07,103.57Z"/><path class="cls-4" d="M21.47,95.36h2.42l1,7.27,1.27-6.08h1.52l1.45,6c.22-1.45.36-2.67.42-3.67.07-1.28.11-2.24.11-2.88v-.69H32c-.23,2.06-.47,3.83-.7,5.31-.31,2-.6,3.61-.88,5H28.27l-1.34-5.72-1.28,5.72H23.41Z"/><path class="cls-4" d="M52,102.14l1.87,1.21a5.44,5.44,0,0,1-1.92,2,5.22,5.22,0,0,1-5.37-.11,5.2,5.2,0,0,1-1.93-2.42,10,10,0,0,1-.71-4,9.31,9.31,0,0,1,.82-4.18,5.6,5.6,0,0,1,2.11-2.37,5.22,5.22,0,0,1,2.68-.73,4.37,4.37,0,0,1,2.69.82A5.45,5.45,0,0,1,54,94.71l-1.78.85,0,0v0A3.25,3.25,0,0,0,51.13,94a2.78,2.78,0,0,0-1.52-.44A2.47,2.47,0,0,0,47.26,95a7.88,7.88,0,0,0-.77,3.8,8.75,8.75,0,0,0,.37,2.71,4.61,4.61,0,0,0,1.1,1.89,2.15,2.15,0,0,0,1.54.71Q50.91,104.06,52,102.14Zm0-6.73s0,0,.08.09l.09.11-.11,0-.11-.22Zm.26.33,0,0a.42.42,0,0,1-.07-.11l.05,0Z"/><path class="cls-4" d="M59.82,106a4.64,4.64,0,0,1-2.49-.7,4.72,4.72,0,0,1-1.76-1.94,6.31,6.31,0,0,1-.64-2.84,5.72,5.72,0,0,1,.64-2.72,5.08,5.08,0,0,1,1.78-1.94,4.65,4.65,0,0,1,2.47-.7,4.59,4.59,0,0,1,2.46.7,5,5,0,0,1,1.78,1.94,5.61,5.61,0,0,1,.64,2.72,6.18,6.18,0,0,1-.64,2.84A4.71,4.71,0,0,1,59.82,106Zm1.25-2.42a3,3,0,0,0,.84-1.23,5.24,5.24,0,0,0,.31-1.83,5.1,5.1,0,0,0-.31-1.82,2.56,2.56,0,0,0-.84-1.15,2,2,0,0,0-1.25-.41,2,2,0,0,0-1.23.41,2.58,2.58,0,0,0-.82,1.17,5.07,5.07,0,0,0-.31,1.8,5.32,5.32,0,0,0,.29,1.85,2.64,2.64,0,0,0,.81,1.21,2,2,0,0,0,1.26.44A2,2,0,0,0,61.07,103.57Z"/><path class="cls-4" d="M68.11,105.38a4.42,4.42,0,0,1-1.58-1.81,6.48,6.48,0,0,1-.57-2.9,6.78,6.78,0,0,1,.59-3,4.68,4.68,0,0,1,1.61-1.91,3.71,3.71,0,0,1,2.15-.66,3.12,3.12,0,0,1,1.28.28,3.32,3.32,0,0,1,1.1.75V90.79h2.68V91a.55.55,0,0,0-.13.29,2.66,2.66,0,0,0,0,.53l0,12.56a6.45,6.45,0,0,0,0,.66,1.47,1.47,0,0,0,.19.57H73a1.58,1.58,0,0,1-.18-.53,5.51,5.51,0,0,1,0-.7,2.36,2.36,0,0,1-1,1.16,2.82,2.82,0,0,1-1.43.4A4.28,4.28,0,0,1,68.11,105.38Zm4.6-5A5.4,5.4,0,0,0,72.29,98a1.54,1.54,0,0,0-1.54-.88,1.9,1.9,0,0,0-1.74,1,4.93,4.93,0,0,0-.57,2.51,4.73,4.73,0,0,0,.33,1.9,2.44,2.44,0,0,0,.86,1.07,1.92,1.92,0,0,0,1.06.33C72,103.92,72.71,102.74,72.71,100.38Z"/><path class="cls-4" d="M78.25,105.64v-2h2.47V97.35H78.36v-2h4.82v8.3h2.25v2ZM81,93.39a1.48,1.48,0,0,1-.55-.53,1.4,1.4,0,0,1-.22-.73,1.35,1.35,0,0,1,.44-1.06,1.59,1.59,0,0,1,1.1-.39,1.49,1.49,0,0,1,.74.2,1.53,1.53,0,0,1,.58.55,1.46,1.46,0,0,1,.22.7,1.5,1.5,0,0,1-.22.73,1.57,1.57,0,0,1-.58.53,1.6,1.6,0,0,1-.74.19A1.62,1.62,0,0,1,81,93.39Z"/><path class="cls-4" d="M88.62,95.36H91.1v1.06a4.28,4.28,0,0,1,1.3-.94A4,4,0,0,1,94,95.15a2.94,2.94,0,0,1,2.33,1,4.83,4.83,0,0,1,.88,3.23v6.23H94.78v-6.2a2.81,2.81,0,0,0-.44-1.72,1.48,1.48,0,0,0-1.26-.55,2.54,2.54,0,0,0-1,.2,1.53,1.53,0,0,0-.7.64,1.9,1.9,0,0,0-.29,1v6.6H88.62Z"/><path class="cls-4" d="M108.26,106a3,3,0,0,1-.53,1.71,3.37,3.37,0,0,1-1.6,1.23,7,7,0,0,1-2.71.47,5.3,5.3,0,0,1-3-.69,2.12,2.12,0,0,1-1-1.84,2.38,2.38,0,0,1,.31-1.17,2.35,2.35,0,0,1,.88-.9,1.71,1.71,0,0,1-.95-1.59,1.87,1.87,0,0,1,.31-1.05,2.64,2.64,0,0,1,.88-.84,3.7,3.7,0,0,1-.9-1.23,3.56,3.56,0,0,1-.33-1.5A3.76,3.76,0,0,1,103.4,95a3.94,3.94,0,0,1,1.25.2,3.29,3.29,0,0,1,1.08.61A6.85,6.85,0,0,1,107,95.3a5.16,5.16,0,0,1,1.41-.2,1.78,1.78,0,0,1,.33,0L109,97a5.82,5.82,0,0,0-1.08-.11,4,4,0,0,0-1.12.14,3.52,3.52,0,0,1,.39,1.62,3.76,3.76,0,0,1-3.76,3.68,3.65,3.65,0,0,1-1.52-.33,1.38,1.38,0,0,0-.2.28.8.8,0,0,0,0,.31c0,.27.25.46.75.6a11.25,11.25,0,0,0,2.55.22C107.15,103.4,108.26,104.28,108.26,106Zm-2.86,1.23a1,1,0,0,0,.6-.93.77.77,0,0,0-.16-.52.93.93,0,0,0-.53-.31,4.38,4.38,0,0,0-1-.09,13.35,13.35,0,0,1-2.31-.15,1.36,1.36,0,0,0-.4.5,1.35,1.35,0,0,0-.13.62,1,1,0,0,0,.62.92,4,4,0,0,0,1.71.31A3.42,3.42,0,0,0,105.4,107.27Zm-2.79-10.08a1.35,1.35,0,0,0-.57.62,1.72,1.72,0,0,0-.2.83,1.69,1.69,0,0,0,.77,1.46,1.53,1.53,0,0,0,1.58,0,1.4,1.4,0,0,0,.57-.62,1.84,1.84,0,0,0,0-1.67,1.35,1.35,0,0,0-.57-.62,1.53,1.53,0,0,0-1.58,0Z"/><path class="cls-4" d="M112.4,108.24a6.63,6.63,0,0,0,1-1.19,2,2,0,0,0,.42-1,.28.28,0,0,0-.09-.2l-.06-.08-.1-.11-.12-.09a5.83,5.83,0,0,1-.49-.53,1,1,0,0,1-.2-.57,1.64,1.64,0,0,1,.2-.8,1.44,1.44,0,0,1,.57-.55,1.76,1.76,0,0,1,.86-.19,1.58,1.58,0,0,1,.88.26,2.11,2.11,0,0,1,1,1.76,3.83,3.83,0,0,1-.66,2,15,15,0,0,1-1.94,2.42Zm1.23-9.38a1.42,1.42,0,0,1-.59-.55,1.29,1.29,0,0,1-.25-.74,1.32,1.32,0,0,1,.25-.75,1.42,1.42,0,0,1,.59-.55,1.68,1.68,0,0,1,.79-.2,1.73,1.73,0,0,1,.77.2,1.47,1.47,0,0,1,.64.53,1.35,1.35,0,0,1,0,1.51,1.42,1.42,0,0,1-.61.55,1.74,1.74,0,0,1-.82.2A1.57,1.57,0,0,1,113.63,98.86Z"/></g></g></svg>