<svg xmlns="http://www.w3.org/2000/svg" viewBox="0 0 95.39 72.2"><defs><style>.cls-1{fill:#5e541b;}.cls-2{fill:#0e3b43;}.cls-3{fill:#a4c2a5;}.cls-4{fill:#fff;}</style></defs><g id="レイヤー_2" data-name="レイヤー 2"><g id="レイヤー_1-2" data-name="レイヤー 1"><rect class="cls-1" x="95.39" y="3.39" height="12.01"/><path class="cls-1" d="M31.8,0H3.4A3.4,3.4,0,0,0,0,3.4v12H31.8Z"/><rect class="cls-2" x="31.8" width="31.8" height="15.4"/><path class="cls-3" d="M92,0H63.59V15.4h31.8v-12A3.4,3.4,0,0,0,92,0Z"/><path d="M63.59,15.4H0V68.8a3.4,3.4,0,0,0,3.4,3.4H92a3.4,3.4,0,0,0,3.4-3.4h0V15.4Z"/><path class="cls-4" d="M40,39.13l-8-8a1.17,1.17,0,0,0-1.67,0L28.56,33a1.18,1.18,0,0,0,0,1.67l8,8-7.95,8a1.18,1.18,0,0,0,0,1.67l1.85,1.85a1.18,1.18,0,0,0,1.67,0L42.72,43.48a1.18,1.18,0,0,0,0-1.67L40,39.13Z"/><rect class="cls-4" x="44.68" y="49.98" width="17.41" height="4.98" rx="1.18"/></g></g></svg>